<mxfile host="app.diagrams.net" agent="Mozilla/5.0 (X11; CrOS x86_64 14541.0.0) AppleWebKit/537.36 (KHTML, like Gecko) Chrome/126.0.0.0 Safari/537.36" version="24.7.7">
  <diagram name="Page-1" id="GNFOahJMxWmCkMkJRUyX">
    <mxGraphModel dx="874" dy="1222" grid="0" gridSize="10" guides="1" tooltips="1" connect="1" arrows="1" fold="1" page="0" pageScale="1" pageWidth="850" pageHeight="1100" math="0" shadow="0">
      <root>
        <mxCell id="0" />
        <mxCell id="1" parent="0" />
        <mxCell id="i2Bi9_BIr9AX6_THtK0v-3" style="edgeStyle=none;curved=1;rounded=0;orthogonalLoop=1;jettySize=auto;html=1;fontSize=12;startSize=8;endSize=8;" parent="1" source="i2Bi9_BIr9AX6_THtK0v-1" target="i2Bi9_BIr9AX6_THtK0v-2" edge="1">
          <mxGeometry relative="1" as="geometry">
            <Array as="points">
              <mxPoint x="181" y="369" />
            </Array>
          </mxGeometry>
        </mxCell>
        <mxCell id="i2Bi9_BIr9AX6_THtK0v-1" value="&lt;div&gt;&lt;span style=&quot;background-color: initial;&quot;&gt;Media Player&lt;/span&gt;&lt;br&gt;&lt;/div&gt;" style="verticalLabelPosition=bottom;aspect=fixed;html=1;shape=mxgraph.salesforce.media2;" parent="1" vertex="1">
          <mxGeometry x="-40" y="291" width="86" height="86" as="geometry" />
        </mxCell>
        <mxCell id="i2Bi9_BIr9AX6_THtK0v-2" value="Screen Shot" style="shape=image;html=1;verticalAlign=top;verticalLabelPosition=bottom;labelBackgroundColor=#ffffff;imageAspect=0;aspect=fixed;image=https://cdn1.iconfinder.com/data/icons/unicons-line-vol-1/24/capture-128.png" parent="1" vertex="1">
          <mxGeometry x="249" y="258" width="86" height="86" as="geometry" />
        </mxCell>
        <mxCell id="i2Bi9_BIr9AX6_THtK0v-11" style="edgeStyle=none;curved=1;rounded=0;orthogonalLoop=1;jettySize=auto;html=1;fontSize=12;startSize=8;endSize=8;exitX=0.9;exitY=0.1;exitDx=0;exitDy=0;exitPerimeter=0;" parent="1" source="i2Bi9_BIr9AX6_THtK0v-4" target="i2Bi9_BIr9AX6_THtK0v-9" edge="1">
          <mxGeometry relative="1" as="geometry">
            <Array as="points">
              <mxPoint x="299" y="20" />
            </Array>
          </mxGeometry>
        </mxCell>
        <mxCell id="i2Bi9_BIr9AX6_THtK0v-4" value="Script" style="verticalLabelPosition=bottom;html=1;verticalAlign=top;align=center;strokeColor=none;fillColor=#00BEF2;shape=mxgraph.azure.script_file;pointerEvents=1;" parent="1" vertex="1">
          <mxGeometry x="127" y="67" width="82" height="82" as="geometry" />
        </mxCell>
        <mxCell id="i2Bi9_BIr9AX6_THtK0v-6" style="edgeStyle=none;curved=1;rounded=0;orthogonalLoop=1;jettySize=auto;html=1;exitX=0.5;exitY=0;exitDx=0;exitDy=0;entryX=1.06;entryY=0.631;entryDx=0;entryDy=0;entryPerimeter=0;fontSize=12;startSize=8;endSize=8;" parent="1" source="i2Bi9_BIr9AX6_THtK0v-2" target="i2Bi9_BIr9AX6_THtK0v-4" edge="1">
          <mxGeometry relative="1" as="geometry">
            <Array as="points">
              <mxPoint x="289" y="188" />
            </Array>
          </mxGeometry>
        </mxCell>
        <mxCell id="i2Bi9_BIr9AX6_THtK0v-10" value="Read by Script" style="edgeLabel;html=1;align=center;verticalAlign=middle;resizable=0;points=[];fontSize=12;" parent="i2Bi9_BIr9AX6_THtK0v-6" vertex="1" connectable="0">
          <mxGeometry x="0.071" relative="1" as="geometry">
            <mxPoint as="offset" />
          </mxGeometry>
        </mxCell>
        <mxCell id="i2Bi9_BIr9AX6_THtK0v-7" style="edgeStyle=none;curved=1;rounded=0;orthogonalLoop=1;jettySize=auto;html=1;fontSize=12;startSize=8;endSize=8;entryX=0.514;entryY=0.008;entryDx=0;entryDy=0;entryPerimeter=0;exitX=0;exitY=0.5;exitDx=0;exitDy=0;exitPerimeter=0;" parent="1" source="i2Bi9_BIr9AX6_THtK0v-4" target="i2Bi9_BIr9AX6_THtK0v-1" edge="1">
          <mxGeometry relative="1" as="geometry">
            <mxPoint x="77" y="66" as="sourcePoint" />
            <mxPoint x="69" y="173" as="targetPoint" />
            <Array as="points">
              <mxPoint x="21" y="151" />
            </Array>
          </mxGeometry>
        </mxCell>
        <mxCell id="i2Bi9_BIr9AX6_THtK0v-8" value="Screen Capture" style="edgeLabel;html=1;align=center;verticalAlign=middle;resizable=0;points=[];fontSize=12;" parent="i2Bi9_BIr9AX6_THtK0v-7" vertex="1" connectable="0">
          <mxGeometry x="-0.0842" y="-3" relative="1" as="geometry">
            <mxPoint as="offset" />
          </mxGeometry>
        </mxCell>
        <mxCell id="i2Bi9_BIr9AX6_THtK0v-15" style="edgeStyle=none;curved=1;rounded=0;orthogonalLoop=1;jettySize=auto;html=1;fontSize=12;startSize=8;endSize=8;" parent="1" source="i2Bi9_BIr9AX6_THtK0v-9" target="i2Bi9_BIr9AX6_THtK0v-18" edge="1">
          <mxGeometry relative="1" as="geometry">
            <mxPoint x="673.7717895507812" y="107" as="targetPoint" />
            <Array as="points">
              <mxPoint x="563" y="12" />
            </Array>
          </mxGeometry>
        </mxCell>
        <mxCell id="i2Bi9_BIr9AX6_THtK0v-16" value="Request to Micro-controller" style="edgeLabel;html=1;align=center;verticalAlign=middle;resizable=0;points=[];fontSize=12;" parent="i2Bi9_BIr9AX6_THtK0v-15" vertex="1" connectable="0">
          <mxGeometry x="-0.0239" y="-3" relative="1" as="geometry">
            <mxPoint x="15" y="17" as="offset" />
          </mxGeometry>
        </mxCell>
        <mxCell id="i2Bi9_BIr9AX6_THtK0v-9" value="Processed Colors" style="sketch=0;html=1;aspect=fixed;strokeColor=none;shadow=0;fillColor=#3B8DF1;verticalAlign=top;labelPosition=center;verticalLabelPosition=bottom;shape=mxgraph.gcp2.process" parent="1" vertex="1">
          <mxGeometry x="335" y="-35" width="70.56" height="84" as="geometry" />
        </mxCell>
        <mxCell id="i2Bi9_BIr9AX6_THtK0v-20" style="edgeStyle=none;curved=1;rounded=0;orthogonalLoop=1;jettySize=auto;html=1;fontSize=12;startSize=8;endSize=8;" parent="1" source="i2Bi9_BIr9AX6_THtK0v-18" target="i2Bi9_BIr9AX6_THtK0v-19" edge="1">
          <mxGeometry relative="1" as="geometry" />
        </mxCell>
        <mxCell id="i2Bi9_BIr9AX6_THtK0v-21" value="Change Colors" style="edgeLabel;html=1;align=center;verticalAlign=middle;resizable=0;points=[];fontSize=12;" parent="i2Bi9_BIr9AX6_THtK0v-20" vertex="1" connectable="0">
          <mxGeometry x="-0.2522" y="1" relative="1" as="geometry">
            <mxPoint as="offset" />
          </mxGeometry>
        </mxCell>
        <mxCell id="i2Bi9_BIr9AX6_THtK0v-18" value="" style="sketch=0;pointerEvents=1;shadow=0;dashed=0;html=1;strokeColor=none;fillColor=#434445;aspect=fixed;labelPosition=center;verticalLabelPosition=bottom;verticalAlign=top;align=center;outlineConnect=0;shape=mxgraph.vvd.cpu;" parent="1" vertex="1">
          <mxGeometry x="556" y="84" width="86" height="86" as="geometry" />
        </mxCell>
        <mxCell id="i2Bi9_BIr9AX6_THtK0v-19" value="LED Strip" style="html=1;verticalLabelPosition=bottom;align=center;labelBackgroundColor=#ffffff;verticalAlign=top;strokeWidth=2;strokeColor=#0080F0;shadow=0;dashed=0;shape=mxgraph.ios7.icons.lightbulb;" parent="1" vertex="1">
          <mxGeometry x="569.06" y="266" width="59.88" height="78" as="geometry" />
        </mxCell>
        <mxCell id="i2Bi9_BIr9AX6_THtK0v-22" value="&lt;font style=&quot;font-size: 12px;&quot;&gt;Microcontroller&lt;/font&gt;" style="text;strokeColor=none;fillColor=none;html=1;align=center;verticalAlign=middle;whiteSpace=wrap;rounded=0;fontSize=16;" parent="1" vertex="1">
          <mxGeometry x="480" y="112" width="60" height="30" as="geometry" />
        </mxCell>
        <mxCell id="iKTsoLLjJ_40nD_Szd7C-1" value="" style="rounded=0;whiteSpace=wrap;html=1;fillColor=none;strokeColor=#FFEDED;" vertex="1" parent="1">
          <mxGeometry x="-51" y="-56" width="714" height="493" as="geometry" />
        </mxCell>
      </root>
    </mxGraphModel>
  </diagram>
</mxfile>
